<svg id="Layer_1" data-name="Layer 1" xmlns="http://www.w3.org/2000/svg" viewBox="0 0 500 500"><defs><style>.cls-1{fill:#535351;}.cls-2{fill:#ff8600;}</style></defs><path class="cls-1" d="M344.447,353.61722c2.05263,10.421,3.81811,19.38417,5.703,28.95365H208.18927V81.07332H358.86551c0,3.97272-.00009,7.68386,0,11.395q.00109,36.82106.014,73.64209c.01973,12.08176,2.31,14.32124,14.64354,14.34592,20.08412.0402,40.16839.00659,60.2526.00424,3.11107-.00037,6.22214-.00006,9.84723-.00006v90.19956c-9.16444-2.41178-19.00014,1.67145-26.19559-6.847-1.17821-1.39487-4.85185-.90788-7.37245-.90972q-85.5969-.06288-171.19389-.06312c-6.74949-.00683-12.68524,1.17355-12.22286,9.52648.425,7.67768,6.34631,8.36091,12.54836,8.3525q65.51263-.08877,131.02549-.02683c4.30975.00017,8.6195,0,14.30415,0-6.99465,6.41237-12.50092,12.02841-18.66123,16.80016-2.16212,1.67475-5.92862,1.7445-8.9649,1.75366q-56.42658.16974-112.85393.08382c-.95638.00012-1.91306.01463-2.86912-.003-6.86641-.12676-14.60611-.66294-14.506,9.12425.09336,9.12967,7.48706,8.677,14.03,8.67237q39.212-.02781,78.42405.012c10.81033.00266,21.62067.00044,33.452.00044-2.00987,6.52378-3.7583,12.19894-5.7252,18.58319q-36.8364,0-73.55544.00082c-11.47669.00123-22.95426.0976-34.42972-.01766-6.32332-.0635-12.03,1.054-12.22126,8.70166-.21,8.39605,5.94226,9.27012,12.5527,9.25658q47.34115-.0971,94.68264-.04333C337.33006,353.6167,340.78934,353.61722,344.447,353.61722ZM323.55369,207.77359q41.57733,0,83.15467-.00386c2.54842-.00057,5.7579.9062,7.50245-.293,3.25115-2.23477,7.77413-5.68954,7.802-8.6736.02751-2.94222-4.4989-6.44085-7.72651-8.69368-1.74467-1.21773-4.95059-.40144-7.49731-.40175q-82.19889-.01033-164.39772.02713c-3.17467.002-6.96219-.69274-9.36388.75835-2.8136,1.7-6.08178,5.39383-6.08651,8.22791-.00479,2.863,3.24818,6.45019,6.01361,8.35855,2.0069,1.38493,5.54485.68243,8.4004.686Q282.45424,207.81684,323.55369,207.77359Zm1.4669,18.49092c-28.66918,0-57.33843.03845-86.00745-.02853-6.71112-.01567-12.6926,1.22035-12.37721,9.47882.29043,7.60491,6.08424,8.56867,12.37011,8.55121,30.58023-.08484,61.16081-.04481,91.74127-.04426,26.7579.00047,53.51588-.03448,80.27358.04087,6.60645.0186,11.73221-1.97683,11.42264-9.47617-.31667-7.67112-6.14478-8.56927-12.3711-8.55721Q367.54664,226.31159,325.02059,226.26451Zm-40.55876-54.99708c15.61422,0,31.22889-.06983,46.84244.03262,6.72386.0441,12.66038-1.23187,12.49206-9.4366-.15786-7.69578-6.07506-8.71208-12.26952-8.70964q-45.8867.01806-91.77334-.021c-6.43393-.01395-12.07993,1.67671-12.10808,8.97827-.02759,7.14413,5.24135,9.2828,11.88643,9.20619C254.50669,171.1446,269.485,171.263,284.46183,171.26743Z"/><path class="cls-2" d="M362.05581,352.89829c-.27933-36.70185,29.05247-66.7029,65.50252-66.99712,37.36182-.30157,67.297,28.98372,67.44113,65.97684a66.47381,66.47381,0,1,1-132.94365,1.02028Zm52.628,39.3013c21.91278-19.85717,43.02436-38.71424,63.63783-58.10094,2.01451-1.89464.96139-7.051,1.33219-10.69334-3.65916.2833-7.59325-.165-10.89279,1.07519-2.77272,1.04214-4.80439,4.05279-7.16742,6.18831-14.79707,13.37239-29.5951,26.74371-44.96149,40.62925-8.10925-10.664-15.25054-20.806-23.3348-30.1304-1.89507-2.18583-6.98066-1.60551-10.5984-2.29779-.20652,3.418-1.91732,7.89795-.37564,10.08178C392.40149,363.22746,403.18381,377.00621,414.68382,392.19959Z"/><path class="cls-1" d="M432.99983,161.69H376.78448V96.02452C395.72445,118.14839,413.64623,139.08293,432.99983,161.69Z"/><rect class="cls-2" x="26.04592" y="174.426" width="164.54086" height="30.61225" rx="15.30611"/><rect class="cls-2" x="47.09185" y="214.60458" width="143.49493" height="30.61225" rx="15.30611"/><rect class="cls-2" x="5" y="254.78316" width="185.58678" height="30.61225" rx="15.30611"/><rect class="cls-2" x="89.18369" y="294.96175" width="101.40309" height="30.61225" rx="15.30611"/></svg>