<?xml version="1.0" encoding="utf-8"?>
<!-- Generator: Adobe Illustrator 24.3.0, SVG Export Plug-In . SVG Version: 6.00 Build 0)  -->
<svg version="1.1" id="Layer_1" xmlns="http://www.w3.org/2000/svg" xmlns:xlink="http://www.w3.org/1999/xlink" x="0px" y="0px"
	 viewBox="0 0 500 500" style="enable-background:new 0 0 500 500;" xml:space="preserve">
<style type="text/css">
	.st0{fill:#535351;}
	.st1{fill:#FF8600;}
</style>
<path class="st0" d="M453.2,302.6c-8.8,0.7-16.9,3.6-24.8,7.3c-16.3,7.7-30.3,18.7-43.4,30.9c-0.9,0.8-1.8,1.6-2.6,2.4
	c-0.2,0.1-0.3,0.3-0.5,0.4c-4.2-3.4-8.1-6.6-12.2-9.7c-0.8-0.5-1.4-1.4-1.6-2.3c-0.1-0.3-0.1-0.7-0.1-1c0-14.6,0-29.3,0-43.9V177.1
	c0-31.7,0-63.4,0-95.1c0-1.6-0.1-3.1-0.3-4.7c-2.1-13.8-14.1-23.9-28.1-23.7c-15.7-0.1-31.3,0-46.9,0c-0.7,0-1.4,0.1-2.1,0.1v16.4
	c0.5,0,0.8,0.1,1.1,0.1c15.4,0,30.9,0,46.3-0.1c6.9,0,11.9,3.2,13.2,9.3c0.3,1.9,0.4,3.8,0.3,5.7c0.1,36.9,0.1,73.7,0.2,110.6
	c0,5.6-0.2,11.2-0.2,16.8c0,36.2,0,72.4,0,108.5v2.8c-10.7-4.1-22-6.2-33.5-6.2c-11.4,0.2-22.6,2.4-33.2,6.7v-0.7
	c-0.9,0.4-1.8,0.8-2.7,1.2h1c-4,2.3-7.6,4.3-11.2,6.2c-0.8,0.4-1.6,0.7-2.5,0.9c-4.6,3.1-9,6.7-12.9,10.6h0.6
	c-0.6,0.7-0.8,1.1-1.2,1.4c-8.4,8.4-15,18.5-19.4,29.5c-0.2,0.6-0.5,1.1-0.9,1.5c-1.3,3.6-2.4,7.2-3.2,11h0.1
	c-0.4,1.5-0.7,3-0.8,4.6c0,0.9-0.2,1.5-0.5,2c-0.5,3.7-0.9,7.4-1,11.2h0.1c-0.4,15.9,3.3,30.6,10.6,44.4c0,0,0,0.1,0.1,0.2
	c1,1.8,2,3.7,3.1,5.5h-2.8c-10.9,0-21.7,0-32.6,0H74.7c-7.7,0-12.6-4.7-12.6-12.4c0-27.7,0-55.3,0-82.9V228.5
	c0-48.3,0.1-96.5-0.1-144.8c0-8.4,5.5-13.7,13.6-13.5c14.9,0.3,29.8,0.1,44.8,0.1h2.5V53.6H74C58.4,53.4,45.7,66,45.5,81.5
	c0,0.2,0,0.3,0,0.5c0,12.9,0,25.9,0,38.8c0,42.4,0,84.9,0,127.3c0,39.8,0,79.6,0,119.4c0,24.6,0.4,49.2-0.1,73.8
	c-0.3,14.5,11.4,29.6,29.2,29.3c9.7-0.2,19.3,0,29,0c50.5,0,101.1,0,151.6,0c1.5,0,3,0.5,4.2,1.4l0,0c0.2,0.1,0.3,0.3,0.5,0.4
	c1,0.9,2.1,1.8,3.1,2.7c0.4,0.4,0.9,0.7,1.3,1.1c15.7,12.5,33.7,19.1,53.9,18.9c0,0,0.1,0,0.1,0c0.3,0,0.5,0,0.8,0
	c7.6-0.2,14.9-1,21.7-2.7c0.2,0,0.4-0.1,0.5-0.1c14.6-3.5,27.2-10.3,37.6-20.3c0.1-0.1,0.1-0.1,0.2-0.2c7.4-7.1,13.7-15.8,18.9-26
	c13.7-27,12.5-54.6-1.4-81.5c-1.4-2.7-3.1-5.2-4.7-8c0.2-0.2,0.3-0.4,0.5-0.6c2.8-3.2,5.5-6.5,8.3-9.6c10.2-11.3,20.8-22.2,33-31.3
	c6.3-4.8,13.2-8.8,20.6-11.9C454.1,302.6,453.6,302.6,453.2,302.6z M400.3,406.7L400.3,406.7c0,3.4-0.2,6.8-0.6,10.2
	c-0.1,0.8-0.2,1.5-0.3,2.3c-0.1,0.5-0.2,1.1-0.3,1.7c-7.8,44.4-50.1,74.2-94.5,66.4c-44.4-7.8-74.2-50.1-66.4-94.5
	c3.5-19.9,14.2-37.9,30.2-50.3c0.5-0.4,1-0.8,1.5-1.1c0.4-0.3,0.7-0.5,1.1-0.8c0.1,0,0.1-0.1,0.1-0.1c1.1-0.8,2.2-1.6,3.4-2.3
	c0.1-0.1,0.2-0.1,0.2-0.2c0.6-0.4,1.2-0.8,1.8-1.1c0.5-0.3,1-0.6,1.5-0.9c0.5-0.3,1-0.6,1.5-0.9c0,0,0,0,0.1,0
	c0.5-0.3,0.9-0.5,1.4-0.8c0.6-0.4,1.3-0.7,2-1c0.6-0.3,1.2-0.6,1.8-0.9c0.2-0.1,0.4-0.2,0.6-0.3c0.7-0.3,1.3-0.6,1.9-0.9
	c0.1,0,0.1,0,0.2-0.1c0.7-0.3,1.5-0.6,2.2-0.8c0.7-0.3,1.5-0.5,2.2-0.8c0,0,0.1,0,0.1,0c0.8-0.3,1.6-0.5,2.3-0.8
	c0.8-0.2,1.6-0.5,2.4-0.7c1.6-0.4,3.2-0.8,4.8-1.2c0.8-0.2,1.6-0.3,2.4-0.5c0.7-0.1,1.4-0.2,2.1-0.3c0.5-0.1,0.9-0.2,1.4-0.2
	c0.4,0,0.7-0.1,1-0.1c0.5-0.1,1.1-0.1,1.7-0.2c0.7-0.1,1.4-0.1,2.1-0.2c1.1-0.1,2.1-0.1,3.2-0.2c1,0,2-0.1,3-0.1
	C363.7,325.1,400.2,361.6,400.3,406.7z"/>
<g>
	<path class="st0" d="M319.2,322.9c10.4,0,20.5,1.9,30.1,5.6c5.4,2.1,10.6,4.8,15.5,8c4.7,3.1,9.2,6.8,13.3,10.8
		c3.5,3.6,6.8,7.4,9.6,11.6c9.5,13.9,14.6,30.1,14.6,47c0,23.2-9.8,45.6-27,61.3c-0.1,0.1-0.2,0.2-0.3,0.3c-10,9-22,15.5-34.9,18.9
		c-0.1,0-0.2,0-0.3,0.1l-0.1,0l-0.1,0l-0.1,0c-6.5,1.6-13.3,2.5-20.2,2.5l-0.7,0l-1,0l-0.1,0c-18.1-0.4-35.2-6.5-49.4-17.6
		c-0.4-0.3-0.8-0.7-1.3-1c-1-0.8-2.1-1.7-3.2-2.8l0,0l-0.1-0.1c-6.9-6.3-12.7-13.6-17.1-21.7l0,0l-0.2-0.3c-6.5-12-10-25.7-10-39.5
		c0-0.6,0-1.3,0-1.9c0.1-3.5,0.4-7,0.9-10.5c0.3-2.1,0.7-4.1,1.1-6.1c0.8-3.5,1.8-6.9,3-10.2c4.2-11.3,10.9-21.7,19.5-30.2
		c3.7-3.7,7.7-7,12-9.9c3.8-2.5,7.8-4.8,11.9-6.7c0.8-0.4,1.6-0.7,2.5-1.1C297.3,325.1,308.1,322.9,319.2,322.9 M319.2,316.9
		c-12.2,0-23.8,2.4-34.4,6.9c-0.9,0.4-1.8,0.8-2.7,1.2c-4.4,2-8.7,4.4-12.7,7.1c-4.6,3.1-9,6.7-12.9,10.6
		c-9.1,9.1-16.3,20.1-20.9,32.4c-1.3,3.6-2.4,7.2-3.2,11c-0.5,2.1-0.9,4.3-1.2,6.5c-0.5,3.7-0.9,7.4-1,11.2c0,0.7,0,1.4,0,2.1
		c0,15.3,3.9,29.8,10.7,42.4c0,0,0.1,0.1,0.1,0.2c4.8,8.8,11.1,16.8,18.4,23.5l0,0c1.2,1.1,2.4,2.1,3.6,3.1c0.4,0.4,0.9,0.7,1.3,1.1
		c14.9,11.7,33.6,18.7,53.9,18.9c0,0,0,0,0,0c0,0,0,0,0.1,0c0.3,0,0.6,0,0.8,0c7.5,0,14.8-0.9,21.7-2.7c0.2,0,0.4-0.1,0.6-0.1
		c14.2-3.7,27.1-10.8,37.6-20.3c0.1-0.1,0.1-0.1,0.2-0.2c17.8-16.3,29-39.7,29-65.7c0-18.7-5.8-36-15.6-50.4
		c-3-4.5-6.5-8.6-10.3-12.4c-4.3-4.4-9.1-8.2-14.2-11.6c-5.2-3.4-10.8-6.3-16.6-8.6C341.5,319.1,330.6,316.9,319.2,316.9
		L319.2,316.9z"/>
</g>
<path class="st0" d="M399.6,416.9c0.4-3.4,0.6-6.7,0.6-10.1c0-13.5-3.3-26.8-9.7-38.7C398.7,383,401.9,400.1,399.6,416.9z"/>
<path class="st0" d="M371.8,344.9L371.8,344.9c-14.8-12.7-33.7-19.8-53.2-19.7c-2.8,0-5.6,0.1-8.3,0.4
	C332.6,323.1,354.9,330.1,371.8,344.9z"/>
<path class="st1" d="M132.2,86.7v-48h32.2c0.2-1.6,0.3-2.8,0.5-4.1c1.7-10.4,7.9-17.6,16.5-22.9c16.4-10,39.9-8.8,55.1,2.9
	c7.7,5.9,12.3,13.6,12.7,23.8h32.4v48.3H132.2z M217.4,21c0-5.9-4.7-10.6-10.6-10.6c-5.9,0-10.6,4.7-10.6,10.6
	c0,5.9,4.7,10.6,10.6,10.6c0,0,0.1,0,0.1,0C212.7,31.6,217.4,26.9,217.4,21z"/>
<path class="st1" d="M126.1,242.7c-11.4,0.1-22.7,0-34.1,0c-0.7,0-1.4,0.1-2,0.1v38.6h38.5c0-0.8,0.1-1.5,0.1-2.2
	c0-11.4,0-22.7,0.1-34.1C128.7,243.1,128,242.7,126.1,242.7z M125.2,278.1h-32v-31.9h32V278.1z"/>
<path class="st1" d="M90.1,120.4h38.4v38.7H90.1V120.4z M93.2,155.7h32v-31.9c-0.4-0.1-0.8-0.1-1.2-0.2c-9.8,0-19.6,0-29.4-0.1
	c-1.6,0-1.6,0.9-1.6,2c0,9.4,0,18.7,0,28.1C93.1,154.4,93.2,155,93.2,155.7z"/>
<path class="st1" d="M90,181.6v38.6h38.4v-38.6H90z M125.2,216.8c-0.7,0-1.3,0.1-2,0.1c-9.3,0-18.6,0-27.9,0c-1.7,0-2.3-0.5-2.3-2.3
	c0.1-9.2,0-18.5,0-27.7c0-0.7,0.1-1.4,0.1-2.2h32V216.8z"/>
<path class="st1" d="M128.3,305.3c-0.2-0.7-0.8-1.2-1.5-1.4c-3.3-0.1-6.5,0-9.8,0c-3.8,0-7.6,0-11.5,0H90.1v38.6h38.2
	c0.2-0.3,0.3-0.4,0.3-0.4C128.5,329.9,128.4,317.6,128.3,305.3z M125.3,339.2H93.2v-32h32.1L125.3,339.2z"/>
<path class="st1" d="M90,365.1v38.5h38.5v-38.5H90z M125.3,400.4c-0.7,0-1.4,0.1-2.1,0.1c-9.4,0-18.7,0-28.1,0.1
	c-1.4,0-2.1-0.3-2.1-1.9c0.1-9.5,0.1-19,0.1-28.5c0-1.1,0-1.9,1.5-1.9c9.8,0.1,19.7,0,29.6,0c0.4,0,0.7,0.1,1.1,0.2L125.3,400.4z"/>
<path class="st0" d="M301.6,326.9c-1.6,0.3-3.2,0.7-4.8,1.2C298.4,327.6,300,327.2,301.6,326.9z"/>
<path class="st1" d="M390.5,368.1c-0.5,0.6-0.9,0.9-1.2,1.4c-6.1,8-12.4,15.7-18.1,24c-15,21.9-29.7,43.9-44.4,65.9
	c-4.4,6.9-13.3,9.5-20.7,6.1c-4.8-2.2-7.2-6.4-9.2-11c-5.7-13.7-11.4-27.5-19-40.2c-3.4-5.6-6.8-11.1-10.3-16.5l-4.7-7.3
	c-4.9-10.6-11.3-23.7-13.2-27.6c0.2-0.4,0.5-0.7,0.7-1.1l16.9,4.8l0,0l15.7,9.6c13,10,23.3,23.3,32.7,37.8
	c16.7-24.7,35-47.9,56-69.1C379.4,351.4,385.8,359.3,390.5,368.1z"/>
<path class="st1" d="M283.1,376.1l-15.7-9.6C272.9,369.2,278.2,372.4,283.1,376.1z"/>
<path class="st1" d="M249.2,361.8c0.4,0,0.8,0,1.3,0c-0.2,0.4-0.5,0.7-0.7,1.1C249.4,362.2,249.2,361.8,249.2,361.8z"/>
<path class="st1" d="M267.4,366.6l-16.9-4.8C255.2,362.1,261.5,364.2,267.4,366.6z"/>
</svg>
