<svg id="Layer_1" data-name="Layer 1" xmlns="http://www.w3.org/2000/svg" viewBox="0 0 500 500"><defs><style>.cls-1{fill:#535351;}.cls-2{fill:#ff8600;}.cls-3{font-size:38.4268px;font-family:Montserrat-ExtraBold, Montserrat;font-weight:800;}.cls-3,.cls-4{fill:#fff;}</style></defs><path class="cls-1" d="M371.38218,413.86183c-.71029.01166-1.42066.02331-2.14261.02331a82.40165,82.40165,0,0,1-60.83078-26.70079H12.87178v-6.486q0-158.92972.01166-317.87119c0-17.14065,10.32865-27.39944,27.609-27.41109q147.87336-.01749,295.74667,0c17.1523.01165,27.32957,10.317,27.32957,27.62075V248.7314c1.87474-.12808,3.76114-.19794,5.67086-.19794.71029,0,1.42066.01165,2.1193.02324q0-92.55617,0-185.13565c-.01166-22.35743-13.44937-35.74858-35.9-35.74858q-147.262-.03486-294.50063,0c-22.35742,0-35.8301,13.50764-35.8301,35.88831Q5.1107,250.088,5.0001,436.63844c-.04655,22.08962,16.16255,35.79513,35.504,35.702q147.83841-.73368,295.66515-.02331c20.72717.09317,35.46906-15.28922,35.341-35.23623Q371.44043,425.46552,371.38218,413.86183Z"/><path class="cls-1" d="M323.48,262.34q-.09-57.27-.24-114.53a36.59139,36.59139,0,0,0-.47-6.36c-1.24-6.73-5.15-10.01-11.02-10.44-2.82,5.93-5.43,11.44-8.44,17.8,4.97,7.66,5.51,13.11.77,19.06a35.21863,35.21863,0,0,1-6.13,6.19c-3.95,2.94-7.93,7.1-12.35,7.77-4.51.69-9.56-2.21-14.9-3.69-9.06,10.13-25.57,9.9-36.36-1.52-5.84,5.27-12.36005,7.38-19.48,2.78a28.68854,28.68854,0,0,1-7.15-6.75c-3.08-4.09-7.14-8.32-7.91-12.96-.7-4.28,2.39-9.18,3.59-13.06-2.6-4.85-5.24-9.79-8.47-15.83h-3.56q-61.395.105-122.82.21c-10.59.02-15.72,5.04-15.68,15.65q.25506,87.015.67,174.02c.06,10.06,5.1,15.01,15.05,14.99q109.02-.24,218.08-.52c-.06-1.31-.1-2.62-.1-3.94A82.592,82.592,0,0,1,323.48,262.34ZM135.21,146.36c2.29-1.4,4.47-3.67,6.9-4.01,3.85-.54,6.62,2.36,5.74,5.98-.54,2.31-3.73,5.45-5.81995,5.5-2.27.07-4.63-2.99-6.95-4.69C135.12,148.2,135.16,147.28,135.21,146.36Zm-58.85-4.27c6.96.14,13.92.05,20.89.05v-.07c6.76,0,13.53.03,20.31-.01,4.01-.04,7.08,1.48,7.17,5.76.1,4.53-2.98,6.45-7.23,6.46q-20.595.075-41.2.01c-4.32-.01-7.38-2.13-7.23-6.49C69.21,143.72,72.22,142.01,76.36,142.09Z"/><path class="cls-2" d="M293.49221,121.55037c-3.0043-.06987-4.97222-1.00148-6.41613-4.48317-1.87474-4.553-1.211-7.47574,2.10765-10.65466a93.13462,93.13462,0,0,0,6.62572-7.77858c-.82671-1.15279-1.211-1.82812-1.71171-2.38711-8.98958-9.96767-8.91971-9.86284-19.586-1.68846a8.60794,8.60794,0,0,1-6.42778,1.21107c-3.144-.73361-7.1031-1.374-6.486-6.45109.17469-1.40894-.61712-2.946-.96644-4.44813H248.85888c-2.35214,3.831-3.52824,7.35925-5.962,9.36214-3.92419,3.23713-8.09293,2.48028-11.53966-1.6535a17.41433,17.41433,0,0,0-5.29822-4.48316c-1.32749-.66375-3.79612-.687-4.90236.13972-3.36527,2.53849-6.31129,5.62431-9.71153,8.76833,3.24886,4.02895,6.13667,7.14974,8.43067,10.678a9.97249,9.97249,0,0,1,1.18769,6.03183c-.62878,6.38123-5.44961,7.42919-11.41158,7.14973,0,3.97074-.31443,7.4525.15138,10.841.18628,1.33915,2.14262,3.56321,3.15568,3.48169,4.72766-.33766,5.99687,2.35221,7.60381,6.09012,1.71178,3.97074-.03489,6.05507-2.259,8.62853-8.53543,9.89781-8.60529,6.92848.86168,17.1523,2.294,2.46863,4.28516,2.89947,6.88193.524a93.95467,93.95467,0,0,1,7.62713-6.29964c2.89946-2.15427,12.07532.78016,11.84242,4.06392-.58223,8.221,4.69276,7.06821,9.73477,7.24283,3.97081.15139,5.53113-1.19934,5.71748-5.27491.06986-1.72343,1.8864-3.84267,3.49335-4.92567,4.42489-3.02753,8.384-2.11923,11.93559,2.0262,1.97958,2.30559,4.64614,4.01729,7.09145,6.07839,1.048-.73361,1.89806-1.19934,2.59677-1.81654,9.97933-8.79157,10.18893-8.9895,1.51377-19.097-3.01595-3.51659-1.52542-5.99687-.57057-9.3738,1.02472-3.60976,3.23713-3.831,6.07839-3.71459,5.21678.20959,4.77428-3.62142,4.56469-6.83531C297.463,126.48762,299.94323,121.70168,293.49221,121.55037ZM252.9461,152.96716c-13.76379-.55891-24.06913-11.74931-23.6616-25.68773.37263-12.94866,11.64449-23.52187,24.826-23.30062a24.29111,24.29111,0,0,1,23.69657,24.98909C277.50435,142.32409,265.94139,153.49118,252.9461,152.96716Z"/><path class="cls-1" d="M116.46958,216.632c6.5772,15.22109,12.57807,29.1084,18.78118,43.46373H97.61439C103.83554,245.75512,109.835,231.92562,116.46958,216.632Z"/><path class="cls-1" d="M183.73549,250.70075v-39.1644c9.03,0,17.76063-.59315,26.37405.15821,9.60808.83814,16.30285,10.06109,15.94046,20.37551-.334,9.505-7.66972,18.01465-16.77428,18.531C200.97781,251.07165,192.63218,250.70075,183.73549,250.70075Z"/><path class="cls-1" d="M254.88364,250.78961V211.77809c9.32494,0,18.65644-.99651,27.671.26732,9.93394,1.39275,15.68182,11.3785,14.42814,21.97874a19.04612,19.04612,0,0,1-18.55514,16.72968C270.70983,250.93073,262.98478,250.78961,254.88364,250.78961Z"/><text class="cls-3" transform="translate(48.42139 442.06641)">APPLICATION</text><path class="cls-2" d="M495,443.77651v7.82513h-8.03472a7.76712,7.76712,0,0,0,3.41189-1.42066c1.72336-1.409,3.40017-2.87615,4.20365-5.05374C494.74386,444.68482,494.86027,444.23067,495,443.77651Z"/><path class="cls-2" d="M417.45935,322.38276a2.52451,2.52451,0,0,1-2.6316,2.70153,2.46727,2.46727,0,0,1-2.50359-2.294,38.43489,38.43489,0,0,0-9.23407-21.484,38.38175,38.38175,0,0,0-10.98074-8.78,35.13987,35.13987,0,0,0-8.67515-3.35362,56.65654,56.65654,0,0,0-6.24143-1.01307c-1.572-.19793-2.42207-.7685-2.73643-2.096a2.50154,2.50154,0,0,1,2.84126-3.07416c1.72336.22125,3.45838.34939,5.1585.66374a41.22466,41.22466,0,0,1,10.23547,3.36528,43.35483,43.35483,0,0,1,15.85979,12.76238,42.82014,42.82014,0,0,1,4.54137,7.23118,42.11992,42.11992,0,0,1,3.97074,12.38975C417.21486,320.39153,417.3779,321.393,417.45935,322.38276Z"/><path class="cls-1" d="M417.06347,319.40178a42.11992,42.11992,0,0,0-3.97074-12.38975,44.00525,44.00525,0,0,0-11.60958-14.47409,43.26329,43.26329,0,0,0-8.79158-5.51947,41.22466,41.22466,0,0,0-10.23547-3.36528c-1.70012-.31435-3.43514-.44249-5.1585-.66374a2.50154,2.50154,0,0,0-2.84126,3.07416c.31436,1.32749,1.16445,1.89806,2.73643,2.096a56.65654,56.65654,0,0,1,6.24143,1.01307,35.13987,35.13987,0,0,1,8.67515,3.35362,38.38175,38.38175,0,0,1,10.98074,8.78,38.43489,38.43489,0,0,1,9.23407,21.484,2.46727,2.46727,0,0,0,2.50359,2.294,2.52451,2.52451,0,0,0,2.6316-2.70153C417.3779,321.393,417.21486,320.39153,417.06347,319.40178Zm0,0a42.11992,42.11992,0,0,0-3.97074-12.38975,44.00525,44.00525,0,0,0-11.60958-14.47409,43.26329,43.26329,0,0,0-8.79158-5.51947,41.22466,41.22466,0,0,0-10.23547-3.36528c-1.70012-.31435-3.43514-.44249-5.1585-.66374a2.50154,2.50154,0,0,0-2.84126,3.07416c.31436,1.32749,1.16445,1.89806,2.73643,2.096a56.65654,56.65654,0,0,1,6.24143,1.01307,35.13987,35.13987,0,0,1,8.67515,3.35362,38.38175,38.38175,0,0,1,10.98074,8.78,38.43489,38.43489,0,0,1,9.23407,21.484,2.46727,2.46727,0,0,0,2.50359,2.294,2.52451,2.52451,0,0,0,2.6316-2.70153C417.3779,321.393,417.21486,320.39153,417.06347,319.40178Zm0,0a42.11992,42.11992,0,0,0-3.97074-12.38975,44.00525,44.00525,0,0,0-11.60958-14.47409,43.26329,43.26329,0,0,0-8.79158-5.51947,41.22466,41.22466,0,0,0-10.23547-3.36528c-1.70012-.31435-3.43514-.44249-5.1585-.66374a2.50154,2.50154,0,0,0-2.84126,3.07416c.31436,1.32749,1.16445,1.89806,2.73643,2.096a56.65654,56.65654,0,0,1,6.24143,1.01307,35.13987,35.13987,0,0,1,8.67515,3.35362,38.38175,38.38175,0,0,1,10.98074,8.78,38.43489,38.43489,0,0,1,9.23407,21.484,2.46727,2.46727,0,0,0,2.50359,2.294,2.52451,2.52451,0,0,0,2.6316-2.70153C417.3779,321.393,417.21486,320.39153,417.06347,319.40178Zm0,0a42.11992,42.11992,0,0,0-3.97074-12.38975,44.00525,44.00525,0,0,0-11.60958-14.47409,43.26329,43.26329,0,0,0-8.79158-5.51947,41.22466,41.22466,0,0,0-10.23547-3.36528c-1.70012-.31435-3.43514-.44249-5.1585-.66374a2.50154,2.50154,0,0,0-2.84126,3.07416c.31436,1.32749,1.16445,1.89806,2.73643,2.096a56.65654,56.65654,0,0,1,6.24143,1.01307,35.13987,35.13987,0,0,1,8.67515,3.35362,38.38175,38.38175,0,0,1,10.98074,8.78,38.43489,38.43489,0,0,1,9.23407,21.484,2.46727,2.46727,0,0,0,2.50359,2.294,2.52451,2.52451,0,0,0,2.6316-2.70153C417.3779,321.393,417.21486,320.39153,417.06347,319.40178Zm0,0a42.11992,42.11992,0,0,0-3.97074-12.38975,44.00525,44.00525,0,0,0-11.60958-14.47409,43.26329,43.26329,0,0,0-8.79158-5.51947,41.22466,41.22466,0,0,0-10.23547-3.36528c-1.70012-.31435-3.43514-.44249-5.1585-.66374a2.50154,2.50154,0,0,0-2.84126,3.07416c.31436,1.32749,1.16445,1.89806,2.73643,2.096a56.65654,56.65654,0,0,1,6.24143,1.01307,35.13987,35.13987,0,0,1,8.67515,3.35362,38.38175,38.38175,0,0,1,10.98074,8.78,38.43489,38.43489,0,0,1,9.23407,21.484,2.46727,2.46727,0,0,0,2.50359,2.294,2.52451,2.52451,0,0,0,2.6316-2.70153C417.3779,321.393,417.21486,320.39153,417.06347,319.40178Z"/><path class="cls-2" d="M494.90682,440.77222a7.9341,7.9341,0,0,0-2.21241-4.029q-19.66755-19.685-39.35841-39.35841a7.75075,7.75075,0,0,0-8.71005-1.87475.71951.71951,0,0,1-.90823-.19794q-5.537-5.53692-11.06227-11.07391l-4.58793-4.58793c-1.07134-1.07127-2.14261-2.11931-3.22554-3.19058.46581-.61719.89665-1.16445,1.31583-1.72336a67.60045,67.60045,0,0,0,7.02159-11.42324c.83844-1.74667,1.66522-3.49334,2.38718-5.28664a70.41362,70.41362,0,0,0,3.78445-13.05342,67.71069,67.71069,0,0,0,1.211-11.365c.04656-2.62-.04655-5.24-.25614-7.84837-.18635-2.457-.53567-4.90235-.94327-7.33608a55.08239,55.08239,0,0,0-2.783-10.46838c-.9083-2.46863-1.87482-4.9256-3.0043-7.28946-1.09458-2.30559-2.36386-4.518-3.668-6.70717a66.41785,66.41785,0,0,0-9.28062-12.02877c-1.42066-1.47887-2.95767-2.85291-4.47144-4.23861a64.5241,64.5241,0,0,0-7.06821-5.49616,67.71662,67.71662,0,0,0-10.93419-6.0668c-2.10765-.90831-4.227-1.77-6.40447-2.49194-2.36386-.78016-4.77421-1.43225-7.19628-2.00282a60.02084,60.02084,0,0,0-10.39851-1.50218c-.53568-.0349-1.05969-.11642-1.59529-.17462h-7.20794c-.559.0582-1.10624.13972-1.65357.17462a.47715.47715,0,0,0-.12807.01166,66.69962,66.69962,0,0,0-12.66921,2.04944,69.83113,69.83113,0,0,0-11.202,3.92418,63.71731,63.71731,0,0,0-10.91087,6.09005c-1.80488,1.25762-3.56321,2.59676-5.27492,3.98246-.51236.41918-1.02472.83837-1.52542,1.26921a73.62394,73.62394,0,0,0-5.35651,5.08863,66.43526,66.43526,0,0,0-6.6024,8.15114A71.919,71.919,0,0,0,304.275,300.561a62.67218,62.67218,0,0,0-4.34337,11.59793c-.73361,2.85284-1.3508,5.72907-1.87481,8.62853-.33767,1.83985-.40753,3.72625-.60547,5.58934q-.08742.87333-.1747,1.74667v6.90517a.5701.5701,0,0,1,.035.08152,1.51033,1.51033,0,0,1,.05821.24456c.13973,1.74668.20959,3.505.43084,5.25168a71.17862,71.17862,0,0,0,1.94461,9.85119,71.991,71.991,0,0,0,4.39,11.85407,73.39292,73.39292,0,0,0,6.24143,10.66639,66.43833,66.43833,0,0,0,7.10311,8.52377c1.99123,2.00282,4.08722,3.87756,6.2415,5.68252a.58635.58635,0,0,0,.0931.08152,62.21325,62.21325,0,0,0,12.19181,7.99975c2.49194,1.23431,5.04208,2.37545,7.63878,3.37686a75.20874,75.20874,0,0,0,7.41753,2.36386,57.48782,57.48782,0,0,0,9.73477,1.76992c2.11931.198,4.25027.44249,6.38123.44249,1.3857,0,2.783-.01165,4.16867-.06986,1.42067-.05821,2.85292-.13973,4.27358-.25615a73.49155,73.49155,0,0,0,7.63878-1.07127,68.02923,68.02923,0,0,0,14.0898-4.425,72.94968,72.94968,0,0,0,10.317-5.49616,69.32632,69.32632,0,0,0,12.00546-9.72319c.13972-.13973.29111-.2678.5007-.47739a4.51248,4.51248,0,0,0,.34932.45415q3.66807,3.668,7.33608,7.336,5.43213,5.43213,10.87591,10.86433a.6713.6713,0,0,1,.1747.91988,4.617,4.617,0,0,0-.34932,1.1179,7.62884,7.62884,0,0,0,2.03778,7.2778q19.82469,19.87714,39.70767,39.71932a5.30789,5.30789,0,0,0,1.46721,1.09459c.9432.44249,1.95627.75685,2.93436,1.11789h2.259a7.76712,7.76712,0,0,0,3.41189-1.42066c1.72336-1.409,3.40017-2.87615,4.20365-5.05374.163-.44242.27945-.89657.41918-1.35073v-2.783A1.261,1.261,0,0,1,494.90682,440.77222Zm-80.40515-66.3386c-11.86573,12.50617-26.33982,19.09691-43.1777,19.67914-1.50218.05828-3.01595.06986-4.553.02331a61.48619,61.48619,0,0,1-26.68914-6.95172,62.35165,62.35165,0,0,1-33.66424-52.09749c-.08145-1.537-.11642-3.0974-.09311-4.66938a60.19681,60.19681,0,0,1,17.19886-41.88524c.10483-.10477.20966-.22125.31442-.326,11.07392-11.42324,24.39521-17.7346,39.731-18.98057,2.16585-.18628,4.36668-.2678,6.61406-.24449.38428,0,.78023.01166,1.16444.02324a60.33126,60.33126,0,0,1,27.42275,7.534,61.94549,61.94549,0,0,1,23.78968,22.7533c5.98528,9.92112,8.96626,20.71558,8.96626,35.23622C431.33962,348.07049,425.82015,362.48637,414.50167,374.43362Z"/><rect class="cls-4" x="83.4835" y="204" width="188.61929" height="20.76638" rx="10.38318"/><rect class="cls-4" x="97.76038" y="231.25587" width="174.3424" height="20.76638" rx="10.38318"/><rect class="cls-4" x="69.20661" y="258.51175" width="202.89618" height="20.76638" rx="10.38318"/><rect class="cls-4" x="126.31415" y="285.76762" width="145.78863" height="20.76638" rx="10.38318"/></svg>