<?xml version="1.0" encoding="utf-8"?>
<!-- Generator: Adobe Illustrator 25.4.0, SVG Export Plug-In . SVG Version: 6.00 Build 0)  -->
<svg version="1.1" id="Layer_1" xmlns="http://www.w3.org/2000/svg" xmlns:xlink="http://www.w3.org/1999/xlink" x="0px" y="0px"
	 viewBox="0 0 300 91" style="enable-background:new 0 0 300 91;" xml:space="preserve">
<style type="text/css">
	.st0{fill-rule:evenodd;clip-rule:evenodd;fill:#849DAA;}
	.st1{fill:url(#SVGID_1_);}
	.st2{fill:url(#SVGID_00000000216755732042486280000004212691557558279827_);}
	.st3{fill:url(#SVGID_00000092437763499284287260000018246824190676464052_);}
	.st4{fill:url(#SVGID_00000083068347139343491790000011776967951568072380_);}
	.st5{opacity:0.65;fill:url(#SVGID_00000001645592656246256530000017724475135362897840_);}
	.st6{fill:url(#SVGID_00000038371164829781689600000002663158879094461855_);}
	.st7{opacity:0.65;fill:url(#SVGID_00000072979560194365241870000007694892297353397136_);}
	.st8{fill:url(#SVGID_00000076600031302786102420000007126123280299606690_);}
	.st9{fill:url(#SVGID_00000093161093918407744200000002415697694885245351_);}
</style>
<g>
	<g>
		<g>
			<g>
				<path d="M126.1124268,43.8810387v-2.078167l0.4020767-0.0222893c1.1913757-0.0742836,2.0930252-0.7892952,2.7040329-2.1450233
					l1.0279388-2.2796707l11.3287201-26.8360443h2.3019562l11.3955536,26.8815422
					c1.1765289,2.8006058,2.1747437,4.2454834,2.9946899,4.3346252l0.6026459,0.0445709l0.2683563,0.0222893v2.078167h-11.8431396
					v-2.078167l0.4475708-0.0222893l0.7595825-0.0445709c0.6546478-0.0445709,0.9833679-0.2980728,0.9833679-0.7595787
					c0-0.3277893-0.2163544-1.0205154-0.6481476-2.0781708l-0.6258698-1.5423737l-1.4968719-3.5304718h-12.2675018
					l-1.5200958,3.5527573c-0.8190002,1.9221649-1.2285156,3.0921783-1.2285156,3.5081863
					c0,0.5070038,0.3797913,0.7902222,1.1393738,0.8496513l0.5812988,0.0445709l0.4020691,0.0222893v2.078167H126.1124268z
					 M135.3852539,31.6135311h10.3908386l-5.1842804-12.2675076L135.3852539,31.6135311z"/>
				<path d="M160.3892059,43.8810387v-2.078167l0.425293-0.0222893c1.6983795-0.1040001,2.6213837-0.3129311,2.7708893-0.6258621
					c0.1782837-0.2822914,0.2748566-0.7967262,0.2897186-1.5414467l0.1123505-2.2118874V17.2678566l-0.1123505-2.189599
					c-0.0297241-1.042798-0.2228699-1.6389484-0.580368-1.7875214c-0.3574982-0.1634312-1.1848755-0.2980757-2.4802399-0.4020767
					l-0.425293-0.0222864v-2.0558815h14.0782471v2.0558815l-0.425293,0.0222864
					c-1.7429504,0.1337156-2.6659698,0.3426466-2.7708893,0.625865c-0.1931458,0.2822886-0.2897186,0.8041525-0.2897186,1.5637331
					l-0.1123657,2.189599v20.1335297l0.1123657,1.9435234c0.0594177,1.1170883,0.2674255,1.7503815,0.624939,1.8989525
					c0.3129272,0.1495018,0.879364,0.2312164,1.6983643,0.2460747l1.9890289,0.0445709h4.9827728l1.9221649-0.0891418
					c1.2508087-0.0297165,1.9583893-0.1931458,2.1227417-0.4912224c0.1485748-0.2980728,0.2302856-0.8645096,0.2451477-1.6983757
					l0.0900726-2.6817474v-0.9610825h4.4014893v8.2681007H160.3892059z"/>
				<path d="M190.9126434,43.8810387v-2.078167l0.425293-0.0222893c1.6983795-0.1040001,2.6213989-0.3129311,2.7708893-0.6258621
					c0.178299-0.2822914,0.2748718-0.7967262,0.2897186-1.5414467l0.1123657-2.2118874V17.2678566l-0.1123657-2.189599
					c-0.0297089-1.042798-0.2228546-1.6389484-0.580368-1.7875214c-0.3574982-0.1634312-1.1848602-0.2980757-2.4802399-0.4020767
					l-0.425293-0.0222864v-2.0558815h14.0782471v2.0558815l-0.425293,0.0222864
					c-1.7429504,0.1337156-2.6659546,0.3426466-2.7708893,0.625865c-0.1931458,0.2822886-0.2897186,0.8041525-0.2897186,1.5637331
					l-0.1123505,2.189599v20.1335297l0.1123505,1.9435234c0.059433,1.1170883,0.2674408,1.7503815,0.624939,1.8989525
					c0.3129272,0.1495018,0.879364,0.2312164,1.6983795,0.2460747l1.9890289,0.0445709h4.9827728l1.9221649-0.0891418
					c1.2507935-0.0297165,1.9565277-0.1931458,2.1236725-0.4912224c0.1485596-0.2980728,0.2302856-0.8645096,0.2451324-1.6983757
					l0.0891571-2.6817474v-0.9610825h4.401474v8.2681007H190.9126434z"/>
				<path d="M222.0851746,43.8810387v-2.078167l0.4234314-0.0222893c1.6844482-0.1040001,2.6000366-0.3129311,2.7486115-0.6258621
					c0.1782837-0.2971458,0.2767181-0.8115807,0.2915649-1.5414467l0.1114349-2.2118874V17.2678566l-0.1114349-2.189599
					c-0.0315704-1.0279408-0.2321472-1.6231623-0.6035767-1.7875214c-0.358429-0.1792173-1.1700134-0.312933-2.4365997-0.4020767
					l-0.4234314-0.0222864v-2.0558815h14.0550232v2.0558815l-0.4029999,0.0222864
					c-1.7271729,0.1337156-2.6520386,0.3426466-2.7708893,0.625865c-0.1931458,0.2822886-0.2897186,0.8041525-0.2897186,1.5637331
					l-0.1114349,2.189599v20.1335297l0.1114349,2.2118874c0.0297089,1.0427971,0.2377167,1.6463737,0.6258545,1.8098068
					c0.3862915,0.1495018,1.197876,0.2683601,2.4347534,0.357502l0.4029999,0.0222893v2.078167H222.0851746z"/>
				<path d="M239.2453766,43.8810387v-2.078167l0.4234314-0.0222893c1.6993103-0.1040001,2.6223297-0.3129311,2.7709045-0.6258621
					c0.1801453-0.2822914,0.2767181-0.7967262,0.2915649-1.5414467l0.1114349-2.2118874V17.2678566l-0.1114349-2.189599
					c-0.0297089-1.042798-0.2247162-1.6389484-0.5812836-1.7875214c-0.3584442-0.1634312-1.1848755-0.2980757-2.4811859-0.4020767
					l-0.4234314-0.0222864v-2.0558815h27.014328v5.9215717h-3.8647461l-0.0223083-0.4243622l-0.0222778-0.5812931
					c-0.0148621-0.2386456-0.0315552-0.4392195-0.0445557-0.6035786c0-0.0891438,0-0.156002,0-0.2005739
					c-0.0167236-0.8496532-0.1430054-1.355731-0.3807373-1.5200901c-0.2525635-0.1782875-0.7075806-0.2822886-1.3631592-0.312932
					l-1.519165-0.0891438h-9.3173828v12.5581532h6.8139343l2.1896057-0.0445728
					c0.5961304-0.0148563,0.9545898-0.096571,1.0734253-0.2460728c0.0743103-0.1188602,0.1262817-0.3575058,0.1560059-0.7150097
					v-0.1114292l-0.0222778-0.0900726c0.0445557-0.0445728,0.066864-0.0965729,0.066864-0.156002
					c0-0.3575039,0.0074158-0.6407223,0.0222778-0.8487244l0.0445862-0.4252911h2.8822937v7.1733017h-2.8822937
					l-0.0445862-0.4020767c0-0.0594292-0.0074158-0.1643581-0.0222778-0.312933
					c-0.0148621-0.2386456-0.0223083-0.4169331-0.0223083-0.5367203V28.798069c0-0.8041534-0.4382629-1.2136593-1.318573-1.2285156
					l-2.1004639-0.0900726h-6.8362122v9.9219055l0.1114197,1.9435234c0.074295,1.1477318,0.2822876,1.7800941,0.6258698,1.8989525
					c0.3268585,0.1495018,0.9007263,0.2312164,1.7197418,0.2460747l1.8330231,0.0445709h4.9827728l2.5461731-0.0668564
					c1.0288696,0,1.5878601-0.416935,1.677002-1.2508011l0.1114502-2.1227417l0.0445557-0.4252892h3.8443298v6.2122192H239.2453766z
					"/>
				<path d="M269.5004578,43.8810387v-2.078167l0.4030151-0.0222893c1.012146-0.0742836,1.6008606-0.2832146,1.7643127-0.6258621
					c0.1504211-0.2822914,0.2247009-0.7967262,0.2247009-1.5414467l0.0223083-2.2118874V17.2678566l-0.0223083-2.189599
					c0-1.042798-0.172699-1.6612349-0.5144348-1.8543797c-0.2674255-0.1792164-0.7595825-0.2906466-1.4745789-0.3352184
					l-0.4030151-0.0222864v-2.0558815H279.1763l1.6528625-0.0222864l2.0559082-0.0445719l1.6547241-0.0222864
					c4.2454834-0.0594292,7.723938,1.0873709,10.4354248,3.4403992c3.3057556,2.8609648,4.9604797,7.0321569,4.9604797,12.5135813
					c0,5.2288494-1.4226074,9.4074745-4.2677612,12.5358696c-2.8303223,3.1135368-6.6375122,4.6698418-11.4197083,4.6698418
					H269.5004578z M278.7751465,13.0000896v24.4012966c0,2.0549545,0.3937378,3.2695427,1.1830139,3.6419029
					c0.6704407,0.3277893,1.81073,0.4912186,3.4190369,0.4912186c2.9343262,0,5.207489-1.295372,6.8157959-3.8879738
					c1.6083069-2.6065331,2.4124756-6.1890049,2.4124756-10.7474174c0-4.9010601-0.9750061-8.438961-2.9269104-10.6146297
					c-1.9370117-2.1895981-5.0867615-3.2843971-9.4511108-3.2843971H278.7751465z"/>
			</g>
			<path id="Line_00000005981681218188968310000011898315817425943468_" class="st0" d="M262.8040466,55.0682373
				c1.2796936,0,2.3163147-1.0387268,2.3163147-2.317482c0-1.2787018-1.0404358-2.3163147-2.3163147-2.3163147h-97.9069519
				c-1.2770233,0-2.3168945,1.0376129-2.3168945,2.3163147c0,1.2787552,1.0372162,2.317482,2.3168945,2.317482H262.8040466z"/>
		</g>
		<g>
			<path d="M126.3392029,80.4801559v-1.204422l0.2462845-0.0129318c0.9752884-0.0601654,1.5063705-0.1816177,1.5926743-0.3626709
				c0.1037445-0.1726227,0.1596985-0.4706345,0.1684113-0.8934708l0.0649414-1.2820206V65.056076l-0.0649414-1.2690849
				c-0.0174408-0.5960236-0.1338348-0.9412651-0.3497467-1.036293c-0.2071991-0.1034622-0.6778336-0.181057-1.4113388-0.2327881
				l-0.2462845-0.0129318v-1.1914825h8.1458435v1.1914825l-0.2330627,0.0129318
				c-1.001709,0.0775986-1.5367279,0.1984901-1.605896,0.3626747c-0.1121674,0.1636276-0.168396,0.4661369-0.168396,0.9064064
				l-0.0646667,1.2690849v11.6685638l0.0646667,1.2820206c0.0174255,0.604454,0.138031,0.9536362,0.3626709,1.0486603
				c0.22435,0.0865936,0.6949921,0.1557541,1.4116211,0.2074814l0.2330627,0.0129318v1.204422H126.3392029z"/>
			<path d="M148.0651093,80.4801559v-1.204422l0.2460022-0.0129318c0.9755707-0.0601654,1.5063629-0.1816177,1.5929565-0.3626709
				c0.1034698-0.1726227,0.1596985-0.4706345,0.1684113-0.8934708l0.0646667-1.2820206V65.056076l-0.0646667-1.2690849
				c-0.0174255-0.5960236-0.1341095-0.9412651-0.3497467-1.036293c-0.2071991-0.1034622-0.6778259-0.181057-1.4116211-0.2327881
				l-0.2460022-0.0129318v-1.1914825h5.905426l1.1785431-0.0258675l1.2949524-0.0387955l1.0489502-0.0264282
				c1.4071198-0.0343018,2.5986023,0.2249146,3.5744476,0.7770805c1.4158325,0.8119392,2.123764,2.2581444,2.123764,4.338604
				c0,4.1873474-2.6764984,6.2807388-8.0291748,6.2807388h-1.1914825v4.1058121
				c0,0.4745712,0.0342865,0.9581375,0.1034546,1.4501419c0.0432892,0.3368073,0.1037445,0.5527267,0.1813354,0.6477509
				c0.1639099,0.2159195,0.4965057,0.340744,0.9972229,0.3756104l0.8805389,0.0646591l0.2462769,0.0129318v1.204422H148.0651093z
				 M153.9705353,71.3497467h0.763855c2.9354248,0,4.4032745-1.5710297,4.4032745-4.7136459
				c0-2.7023506-1.2561493-4.0535278-3.7684479-4.0535278h-1.3986816V71.3497467z"/>
			<path d="M194.9221344,80.4801559v-1.204422l0.2462921-0.0129318c0.9839935-0.0601654,1.5192871-0.1816177,1.6058807-0.3626709
				c0.1034698-0.1641922,0.1591339-0.4616394,0.1681213-0.8934708l0.0646667-1.2820206V65.056076l-0.0646667-1.2690849
				c-0.0174255-0.6044579-0.1293182-0.9496994-0.3368073-1.036293c-0.2069244-0.0950279-0.686554-0.1726227-1.4371948-0.2327881
				l-0.2462921-0.0129318v-1.1914825h14.5435486v3.5868263h-2.2401581l-0.0134888-0.2327881
				c-0.016861-0.3109436-0.030365-0.5740967-0.0382385-0.7900124v-0.0646629c0-0.5870285-0.1383209-0.9412689-0.4149628-1.0621605
				c-0.2676544-0.1118965-0.7596436-0.1681252-1.4765625-0.1681252h-4.2863159v7.757309h2.9008331l1.2690887-0.0258636
				c0.371109-0.0084381,0.5870209-0.0601654,0.6477509-0.1557541c0.0517273-0.1034622,0.0775909-0.2670898,0.0775909-0.4920044
				v-0.0258636c0-0.0168686,0-0.0691605,0-0.1551895c0.0084381-0.1641922,0.0174408-0.3064499,0.0258636-0.4273376
				l0.0258789-0.2462845h1.6705475v4.1569824h-1.6705475l-0.0258789-0.2327805l-0.0129242-0.1816254
				c-0.0090027-0.1293259-0.0129395-0.2327805-0.0129395-0.310379v-0.0264282c0-0.4661331-0.254715-0.7034225-0.7641449-0.711853
				l-1.2173462-0.0517349h-2.9137726v5.270874l0.0775909,1.2820206c0.0433044,0.5785904,0.1596985,0.9148331,0.3497467,1.0098648
				c0.1636353,0.0950241,0.4487,0.1557541,0.8546753,0.1816177l0.8805389,0.0646591l0.2333527,0.0129318v1.204422H194.9221344z"/>
			<path d="M223.4345703,80.4801559v-1.204422l0.2457123-0.0129318c0.9755707-0.0601654,1.5069275-0.1816177,1.5929565-0.3626709
				c0.1034698-0.1726227,0.1596985-0.4706345,0.1686859-0.8934708l0.0646667-1.2820206V65.056076l-0.0646667-1.2690849
				c-0.0174255-0.5960236-0.1343842-0.9412651-0.3497314-1.036293c-0.207489-0.1034622-0.6781311-0.181057-1.411911-0.2327881
				l-0.2457123-0.0129318v-1.1914825h8.1458435v1.1914825l-0.2333527,0.0129318
				c-1.0014343,0.0775986-1.5367279,0.1984901-1.605896,0.3626747c-0.1124573,0.1636276-0.1681213,0.4661369-0.1681213,0.9064064
				l-0.0646515,1.2690849v11.6685638l0.0646515,1.2820206c0.0168762,0.604454,0.1377716,0.9536362,0.3626862,1.0486603
				c0.22435,0.0865936,0.6944122,0.1557541,1.4113312,0.2074814l0.2333527,0.0129318v1.204422H223.4345703z"/>
			<path d="M245.1596375,80.4801559v-1.204422l0.2462769-0.0129318c0.9755707-0.0601654,1.5063629-0.1816177,1.5929565-0.3626709
				c0.1034546-0.1726227,0.1596832-0.4706345,0.1681213-0.8934708l0.0646667-1.2820206V65.056076l-0.0646667-1.2690849
				c-0.0174255-0.5960236-0.1338196-0.9412651-0.3497467-1.036293c-0.2069092-0.1034622-0.6775513-0.181057-1.4113312-0.2327881
				l-0.2462769-0.0129318v-1.1914825h5.5818176l1.2044067-0.0258675l1.1656189-0.0387955l1.1526947-0.0264282
				c1.5710297-0.0343018,2.8749847,0.2462807,3.9106903,0.8423042c1.3641052,0.776516,2.0461731,2.1192589,2.0461731,4.0270958
				c0,1.6058884-0.4532166,2.9098358-1.3596191,3.9112625c-0.5352783,0.578598-1.3123779,1.0925293-2.3312378,1.5412292
				l3.7425842,5.2191467l1.0233765,1.3208084c0.5437317,0.7079163,1.0660706,1.088028,1.5670776,1.1397552l0.6213379,0.0387955
				l0.2462769,0.0129318v1.204422h-5.7111511l-5.3096619-8.392128h-1.6446991v4.6366119l0.0646667,1.2820206
				c0.0174255,0.595459,0.1248322,0.9451981,0.3238831,1.0486603c0.1894836,0.0950241,0.5695953,0.1641846,1.1397552,0.2074814
				l0.2327728,0.0129318v1.204422H245.1596375z M251.0653229,70.806015h0.7124176
				c1.3551178,0,2.4302063-0.401474,3.2247162-1.2044144c0.7939453-0.802948,1.1909332-1.8949051,1.1909332-3.2764435
				c0-2.4948692-1.2257996-3.7425842-3.6779327-3.7425842h-1.4501343V70.806015z"/>
			<path d="M276.4042053,80.4801559v-1.204422l0.2327881-0.0129318c0.9845581-0.0601654,1.5198669-0.1816177,1.605896-0.3626709
				c0.1040039-0.1726227,0.1596985-0.4706345,0.1686707-0.8934708l0.0646667-1.2820206V65.056076l-0.0646667-1.2690849
				c-0.0174255-0.5960236-0.1343689-0.9412651-0.3497314-1.036293c-0.1990356-0.0950279-0.6736145-0.1726227-1.4248352-0.2327881
				l-0.2327881-0.0129318v-1.1914825h6.4494324l5.6071167,12.406292l6.0350342-12.406292H300v1.1914825l-0.2333374,0.0129318
				c-1.0188599,0.0775986-1.5586548,0.1984901-1.6188354,0.3626747c-0.1124573,0.1636276-0.1681213,0.4661369-0.1681213,0.9064064
				l-0.0646667,1.2690849v11.6685638l0.0646667,1.2820206c0.0168762,0.604454,0.1377563,0.9536362,0.3626709,1.0486603
				c0.2243652,0.0950241,0.6944275,0.1641846,1.4113464,0.2074814l0.2333374,0.0129318v1.204422h-7.5115662v-1.204422
				l0.2462769-0.0129318c0.7854919-0.0517273,1.225769-0.1726227,1.3208008-0.3626709
				c0.1034546-0.1726227,0.1551819-0.4706345,0.1551819-0.8934708l0.0523071-1.2820206V65.3540878l-6.3588867,12.9893799h-1.2820435
				l-6.2160645-13.7923279v12.1735001l0.0517273,1.2820206c0.0084534,0.595459,0.1209106,0.9451981,0.3362427,1.0486603
				c0.1816406,0.0950241,0.5572205,0.1641846,1.1268311,0.2074814l0.2462769,0.0129318v1.204422H276.4042053z"/>
		</g>
	</g>
	<g>
		<g>
			<g>
				<g>
					
						<linearGradient id="SVGID_1_" gradientUnits="userSpaceOnUse" x1="29.1650162" y1="-9.1782331" x2="102.5443344" y2="57.6988716">
						<stop  offset="0" style="stop-color:#00000B"/>
						<stop  offset="0.5" style="stop-color:#1D4158"/>
						<stop  offset="1" style="stop-color:#00000B"/>
					</linearGradient>
					<path class="st1" d="M117.8642044,17.6569157l5.0870819-17.5894241L99.3727264,27.6828899
						c-1.6131058-6.5275574-4.4935455-13.6110725-8.9870224-21.2770348l-0.3477325-0.1628489
						c-15.521637,7.1968484-28.801754-2.2968829-28.801754-2.2968829
						c-7.9027824,9.6656246-27.8853874,2.4597318-27.8853874,2.4597318
						c-4.5957909,7.8410606-7.5054379,15.0726728-9.0955296,21.7226715L0,0.0674918l5.0867519,17.5894241l17.6579552,24.0996189
						c0.0595036,2.3544807,0.2935429,4.6159554,0.6760712,6.7868729L5.8795409,24.0147629l5.5120273,21.6599197
						L34.4528465,71.110466c11.2358208,13.4692001,26.6078911,19.4086685,27.409832,19.7212143
						c0.8229446-0.3201141,16.9368515-6.6798248,28.231163-20.5730438L111.5597153,45.73946l5.5117569-21.7356663
						l-16.6482925,23.9007244c0.3457108-2.1430779,0.544281-4.3719749,0.5771255-6.6910515L117.8642044,17.6569157z"/>
					
						<linearGradient id="SVGID_00000067233259340299492160000016174767968377898120_" gradientUnits="userSpaceOnUse" x1="61.8489418" y1="90.9197083" x2="61.8824158" y2="90.9502182">
						<stop  offset="0" style="stop-color:#00000B"/>
						<stop  offset="0.5" style="stop-color:#1D4158"/>
						<stop  offset="1" style="stop-color:#00000B"/>
					</linearGradient>
					<path style="fill:url(#SVGID_00000067233259340299492160000016174767968377898120_);" d="M61.8981514,90.9325104
						c0,0-0.0131187-0.0053253-0.0354729-0.0137939c-0.0210686,0.0084686-0.0348587,0.0137939-0.0348587,0.0137939H61.8981514z"/>
				</g>
				
					<linearGradient id="SVGID_00000176760827752152430510000007075132178094179261_" gradientUnits="userSpaceOnUse" x1="25.8784714" y1="47.4402466" x2="97.4001999" y2="47.4402466">
					<stop  offset="0" style="stop-color:#B3B3B4"/>
					<stop  offset="0.0498494" style="stop-color:#C5C4C5"/>
					<stop  offset="0.1285089" style="stop-color:#DDDBDC"/>
					<stop  offset="0.2009039" style="stop-color:#EEECEC"/>
					<stop  offset="0.260606" style="stop-color:#F4F2F2"/>
					<stop  offset="0.3027208" style="stop-color:#EDEBEB"/>
					<stop  offset="0.3590312" style="stop-color:#DAD8D9"/>
					<stop  offset="0.4230956" style="stop-color:#BFBEBF"/>
					<stop  offset="0.448485" style="stop-color:#B3B3B4"/>
					<stop  offset="0.581818" style="stop-color:#B3B3B4"/>
					<stop  offset="0.634872" style="stop-color:#C7C6C7"/>
					<stop  offset="0.7046537" style="stop-color:#DEDCDC"/>
					<stop  offset="0.7711495" style="stop-color:#EDEAEA"/>
					<stop  offset="0.830303" style="stop-color:#F3F0EF"/>
					<stop  offset="1" style="stop-color:#B4B4B5"/>
				</linearGradient>
				<path style="fill:url(#SVGID_00000176760827752152430510000007075132178094179261_);" d="M87.6971664,10.4072981
					c32.2100525,54.2899055-26.0921478,76.2813263-26.0921478,76.2813263h0.0670357
					c0,0-58.3012619-21.9914169-26.0895958-76.2813263c0,0,18.2594452,6.5035048,25.4848061-2.2154264
					c0,0,12.1344185,8.5732727,26.3045235,2.0682278"/>
				<g>
					<g>
						
							<linearGradient id="SVGID_00000106113765363323321020000016915679961291009929_" gradientUnits="userSpaceOnUse" x1="29.3258286" y1="62.3088913" x2="93.9550018" y2="62.3088913">
							<stop  offset="0" style="stop-color:#03070D"/>
							<stop  offset="0.35" style="stop-color:#2C3032"/>
							<stop  offset="0.5" style="stop-color:#3B3E3F"/>
							<stop  offset="0.65" style="stop-color:#2C3032"/>
							<stop  offset="1" style="stop-color:#03070D"/>
						</linearGradient>
						<path style="fill:url(#SVGID_00000106113765363323321020000016915679961291009929_);" d="M73.3515167,48.4864502
							c-9.8706169,1.9562073-23.1582031,0.0008965-23.1582031,0.0008965
							c-8.4690666-1.1659164-15.7572289-3.577095-20.8673439-6.7705803
							c-0.0772724,28.5058289,31.3245811,40.8053207,32.3125648,41.1842499
							c0.9852982-0.3789291,32.2744064-12.6320496,32.3164673-41.0235786
							C88.8600311,44.9901047,81.6747208,47.3392601,73.3515167,48.4864502z"/>
						
							<linearGradient id="SVGID_00000067237598877241610750000006694231456262343055_" gradientUnits="userSpaceOnUse" x1="29.3258305" y1="56.2725449" x2="42.8082237" y2="56.2725449">
							<stop  offset="0" style="stop-color:#03070D"/>
							<stop  offset="0.35" style="stop-color:#2C3032"/>
							<stop  offset="0.5" style="stop-color:#3B3E3F"/>
							<stop  offset="0.65" style="stop-color:#2C3032"/>
							<stop  offset="1" style="stop-color:#03070D"/>
						</linearGradient>
						<path style="opacity:0.65;fill:url(#SVGID_00000067237598877241610750000006694231456262343055_);" d="M34.746994,44.4561462
							c-1.9924049-0.8311768-3.8240719-1.7416306-5.4210243-2.7393799
							c-0.0345306,12.8875847,6.3675499,22.4518051,13.482254,29.111557
							C38.3879776,63.3780594,35.4772491,54.3334923,34.746994,44.4561462z"/>
					</g>
					<g>
						<g>
							
								<linearGradient id="SVGID_00000125605004977226094570000003073895002378407052_" gradientUnits="userSpaceOnUse" x1="37.673542" y1="8.8215303" x2="87.1898117" y2="56.0082054">
								<stop  offset="0" style="stop-color:#00000B"/>
								<stop  offset="0.5" style="stop-color:#1D4158"/>
								<stop  offset="1" style="stop-color:#00000B"/>
							</linearGradient>
							<path style="fill:url(#SVGID_00000125605004977226094570000003073895002378407052_);" d="M85.1901093,13.9706707
								l-0.295166-0.1343718c-12.8055038,5.8802671-23.7724152-1.8674717-23.7724152-1.8674717
								c-6.530983,7.8786459-23.0326691,2.0018435-23.0326691,2.0018435
								c-6.08955,10.2635288-8.5903606,19.2454929-8.7520428,27.0392208
								c5.9333935,2.413681,13.5019093,4.1721802,21.9848385,4.9739189c0,0,14.8538055,5.6551056,42.62117-4.8746338
								C93.7998581,33.2922325,91.3059845,24.2773647,85.1901093,13.9706707z"/>
						</g>
						
							<linearGradient id="SVGID_00000041986369873392920680000006423997754860760227_" gradientUnits="userSpaceOnUse" x1="28.7421303" y1="22.13311" x2="43.3397598" y2="36.0439644">
							<stop  offset="0" style="stop-color:#00000B"/>
							<stop  offset="0.5" style="stop-color:#1D4158"/>
							<stop  offset="1" style="stop-color:#00000B"/>
						</linearGradient>
						<path style="opacity:0.65;fill:url(#SVGID_00000041986369873392920680000006423997754860760227_);" d="M40.0079498,14.5597878
							c-1.1943626-0.3326254-1.9180908-0.5891171-1.9180908-0.5891171
							c-6.08955,10.2635288-8.5903606,19.2454929-8.7520428,27.0392208
							c1.6475716,0.6696129,3.4319172,1.2840614,5.3154812,1.8464966
							C34.1412621,32.4488678,36.1451111,22.6873569,40.0079498,14.5597878z"/>
					</g>
				</g>
			</g>
		</g>
		<g>
			
				<linearGradient id="SVGID_00000157265826340271154680000009198114584841790390_" gradientUnits="userSpaceOnUse" x1="43.8140907" y1="45.4714165" x2="56.4959106" y2="45.4714165">
				<stop  offset="0" style="stop-color:#B3B3B4"/>
				<stop  offset="0.0498494" style="stop-color:#C5C4C5"/>
				<stop  offset="0.1285089" style="stop-color:#DDDBDC"/>
				<stop  offset="0.2009039" style="stop-color:#EEECEC"/>
				<stop  offset="0.260606" style="stop-color:#F4F2F2"/>
				<stop  offset="0.3027208" style="stop-color:#EDEBEB"/>
				<stop  offset="0.3590312" style="stop-color:#DAD8D9"/>
				<stop  offset="0.4230956" style="stop-color:#BFBEBF"/>
				<stop  offset="0.448485" style="stop-color:#B3B3B4"/>
				<stop  offset="0.581818" style="stop-color:#B3B3B4"/>
				<stop  offset="0.634872" style="stop-color:#C7C6C7"/>
				<stop  offset="0.7046537" style="stop-color:#DEDCDC"/>
				<stop  offset="0.7711495" style="stop-color:#EDEAEA"/>
				<stop  offset="0.830303" style="stop-color:#F3F0EF"/>
				<stop  offset="1" style="stop-color:#B4B4B5"/>
			</linearGradient>
			<path style="fill:url(#SVGID_00000157265826340271154680000009198114584841790390_);" d="M43.8140907,63.2826538
				c0.7555771-0.5156593,1.4089508-1.4259338,1.9591942-2.7320671c0.5493164-1.3061295,0.8247452-2.9383316,0.8247452-4.8978348
				V35.2900772c0-1.9928513-0.2754288-3.6346245-0.8247452-4.9231548c-0.5502434-1.2888393-1.2036171-2.1910877-1.9591942-2.7067471
				v-0.1031322h12.6818199v0.1031322c-0.7561989,0.5156593-1.4095726,1.4265537-1.958889,2.7323761
				c-0.5502434,1.3064384-0.8247452,2.9386406-0.8247452,4.8975258v20.3626747c0,1.9940872,0.2745018,3.6349335,0.8247452,4.9231567
				c0.5493164,1.2888374,1.2026901,2.1910858,1.958889,2.7067451v0.1031342H43.8140907V63.2826538z"/>
			
				<linearGradient id="SVGID_00000155111088153675825670000016556703412312779418_" gradientUnits="userSpaceOnUse" x1="58.0182533" y1="45.4714165" x2="85.0832596" y2="45.4714165">
				<stop  offset="0" style="stop-color:#B3B3B4"/>
				<stop  offset="0.0498494" style="stop-color:#C5C4C5"/>
				<stop  offset="0.1285089" style="stop-color:#DDDBDC"/>
				<stop  offset="0.2009039" style="stop-color:#EEECEC"/>
				<stop  offset="0.260606" style="stop-color:#F4F2F2"/>
				<stop  offset="0.3027208" style="stop-color:#EDEBEB"/>
				<stop  offset="0.3590312" style="stop-color:#DAD8D9"/>
				<stop  offset="0.4230956" style="stop-color:#BFBEBF"/>
				<stop  offset="0.448485" style="stop-color:#B3B3B4"/>
				<stop  offset="0.581818" style="stop-color:#B3B3B4"/>
				<stop  offset="0.634872" style="stop-color:#C7C6C7"/>
				<stop  offset="0.7046537" style="stop-color:#DEDCDC"/>
				<stop  offset="0.7711495" style="stop-color:#EDEAEA"/>
				<stop  offset="0.830303" style="stop-color:#F3F0EF"/>
				<stop  offset="1" style="stop-color:#B4B4B5"/>
			</linearGradient>
			<path style="fill:url(#SVGID_00000155111088153675825670000016556703412312779418_);" d="M81.6808395,30.598814
				c2.26828,2.0283642,3.40242,4.8975277,3.40242,8.6090412c0,4.1240387-1.1174622,7.2173767-3.3511658,9.2793961
				c-2.234314,2.0620193-5.4474564,3.0933342-9.6400452,3.0933342h-4.2271729v4.2784309
				c0,1.8909569,0.2745056,3.4799271,0.8247452,4.7687645c0.5493164,1.2888412,1.2026901,2.1737976,1.9588852,2.6548729v0.1031342
				H58.0182533v-0.1031342c0.7555809-0.5156593,1.4089546-1.4259338,1.959198-2.7320671
				c0.5493164-1.3061295,0.8247452-2.9383316,0.8247452-4.8978348V35.0838165c0-1.8897247-0.2754288-3.479929-0.8247452-4.7684593
				c-0.5502434-1.2888393-1.2036171-2.1734886-1.959198-2.6551819v-0.1031322h14.0737953
				C76.2160873,27.5570431,79.4125519,28.5713787,81.6808395,30.598814z M77.7627563,39.5685043
				c0-2.3707962-0.5588913-4.1147728-1.6754303-5.2319336c-1.117157-1.116539-2.8441544-1.6754265-5.1809845-1.6754265h-3.0414658
				v13.7640877l3.0414658,0.0512543C75.4768677,46.5116882,77.7627563,44.2082024,77.7627563,39.5685043z"/>
		</g>
	</g>
</g>
</svg>
