<?xml version="1.0" encoding="utf-8"?>
<!-- Generator: Adobe Illustrator 25.4.0, SVG Export Plug-In . SVG Version: 6.00 Build 0)  -->
<svg version="1.1" id="Layer_1" xmlns="http://www.w3.org/2000/svg" xmlns:xlink="http://www.w3.org/1999/xlink" x="0px" y="0px"
	 viewBox="0 0 300 91" style="enable-background:new 0 0 300 91;" xml:space="preserve">
<style type="text/css">
	.st0{fill:#FFFFFF;}
	.st1{fill-rule:evenodd;clip-rule:evenodd;fill:#849DAA;}
	.st2{fill:url(#SVGID_1_);}
	.st3{fill:url(#SVGID_00000036945723695837223120000008771274652515406522_);}
	.st4{fill:url(#SVGID_00000150788700776510227570000014489214790132897923_);}
	.st5{fill:url(#SVGID_00000121975875942561478040000012353768480359353759_);}
	.st6{opacity:0.65;fill:url(#SVGID_00000038383555248805742460000000005795348917949082_);enable-background:new    ;}
	.st7{fill:url(#SVGID_00000099638166680889940910000009395112785389983650_);}
	.st8{opacity:0.65;fill:url(#SVGID_00000027565738075699702960000012975933089775272112_);enable-background:new    ;}
	.st9{fill:url(#SVGID_00000049182810923707457380000008800507273904801462_);}
	.st10{fill:url(#SVGID_00000157310302138289572630000007787144374538400419_);}
</style>
<g>
	<g>
		<g>
			<g>
				<path class="st0" d="M126.1,43.9v-2.1l0.4,0c1.2-0.1,2.1-0.8,2.7-2.1l1-2.3l11.3-26.8h2.3l11.4,26.9c1.2,2.8,2.2,4.2,3,4.3
					l0.6,0l0.3,0v2.1h-11.8v-2.1l0.4,0l0.8,0c0.7,0,1-0.3,1-0.8c0-0.3-0.2-1-0.6-2.1l-0.6-1.5l-1.5-3.5h-12.3l-1.5,3.6
					c-0.8,1.9-1.2,3.1-1.2,3.5c0,0.5,0.4,0.8,1.1,0.8l0.6,0l0.4,0v2.1H126.1z M135.4,31.6h10.4l-5.2-12.3L135.4,31.6z"/>
				<path class="st0" d="M160.4,43.9v-2.1l0.4,0c1.7-0.1,2.6-0.3,2.8-0.6c0.2-0.3,0.3-0.8,0.3-1.5l0.1-2.2V17.3l-0.1-2.2
					c0-1-0.2-1.6-0.6-1.8c-0.4-0.2-1.2-0.3-2.5-0.4l-0.4,0v-2.1h14.1v2.1l-0.4,0c-1.7,0.1-2.7,0.3-2.8,0.6c-0.2,0.3-0.3,0.8-0.3,1.6
					l-0.1,2.2v20.1l0.1,1.9c0.1,1.1,0.3,1.8,0.6,1.9c0.3,0.1,0.9,0.2,1.7,0.2l2,0h5l1.9-0.1c1.3,0,2-0.2,2.1-0.5
					c0.1-0.3,0.2-0.9,0.2-1.7l0.1-2.7v-1h4.4v8.3H160.4z"/>
				<path class="st0" d="M190.9,43.9v-2.1l0.4,0c1.7-0.1,2.6-0.3,2.8-0.6c0.2-0.3,0.3-0.8,0.3-1.5l0.1-2.2V17.3l-0.1-2.2
					c0-1-0.2-1.6-0.6-1.8c-0.4-0.2-1.2-0.3-2.5-0.4l-0.4,0v-2.1H205v2.1l-0.4,0c-1.7,0.1-2.7,0.3-2.8,0.6c-0.2,0.3-0.3,0.8-0.3,1.6
					l-0.1,2.2v20.1l0.1,1.9c0.1,1.1,0.3,1.8,0.6,1.9c0.3,0.1,0.9,0.2,1.7,0.2l2,0h5l1.9-0.1c1.3,0,2-0.2,2.1-0.5
					c0.1-0.3,0.2-0.9,0.2-1.7l0.1-2.7v-1h4.4v8.3H190.9z"/>
				<path class="st0" d="M222.1,43.9v-2.1l0.4,0c1.7-0.1,2.6-0.3,2.7-0.6c0.2-0.3,0.3-0.8,0.3-1.5l0.1-2.2V17.3l-0.1-2.2
					c0-1-0.2-1.6-0.6-1.8c-0.4-0.2-1.2-0.3-2.4-0.4l-0.4,0v-2.1h14.1v2.1l-0.4,0c-1.7,0.1-2.7,0.3-2.8,0.6c-0.2,0.3-0.3,0.8-0.3,1.6
					l-0.1,2.2v20.1l0.1,2.2c0,1,0.2,1.6,0.6,1.8c0.4,0.1,1.2,0.3,2.4,0.4l0.4,0v2.1H222.1z"/>
				<path class="st0" d="M239.2,43.9v-2.1l0.4,0c1.7-0.1,2.6-0.3,2.8-0.6c0.2-0.3,0.3-0.8,0.3-1.5l0.1-2.2V17.3l-0.1-2.2
					c0-1-0.2-1.6-0.6-1.8c-0.4-0.2-1.2-0.3-2.5-0.4l-0.4,0v-2.1h27v5.9h-3.9l0-0.4l0-0.6c0-0.2,0-0.4,0-0.6c0-0.1,0-0.2,0-0.2
					c0-0.8-0.1-1.4-0.4-1.5c-0.3-0.2-0.7-0.3-1.4-0.3L259,13h-9.3v12.6h6.8l2.2,0c0.6,0,1-0.1,1.1-0.2c0.1-0.1,0.1-0.4,0.2-0.7v-0.1
					l0-0.1c0,0,0.1-0.1,0.1-0.2c0-0.4,0-0.6,0-0.8l0-0.4h2.9v7.2h-2.9l0-0.4c0-0.1,0-0.2,0-0.3c0-0.2,0-0.4,0-0.5v0
					c0-0.8-0.4-1.2-1.3-1.2l-2.1-0.1h-6.8v9.9l0.1,1.9c0.1,1.1,0.3,1.8,0.6,1.9c0.3,0.1,0.9,0.2,1.7,0.2l1.8,0h5l2.5-0.1
					c1,0,1.6-0.4,1.7-1.3l0.1-2.1l0-0.4h3.8v6.2H239.2z"/>
				<path class="st0" d="M269.5,43.9v-2.1l0.4,0c1-0.1,1.6-0.3,1.8-0.6c0.2-0.3,0.2-0.8,0.2-1.5l0-2.2V17.3l0-2.2
					c0-1-0.2-1.7-0.5-1.9c-0.3-0.2-0.8-0.3-1.5-0.3l-0.4,0v-2.1h9.7l1.7,0l2.1,0l1.7,0c4.2-0.1,7.7,1.1,10.4,3.4c3.3,2.9,5,7,5,12.5
					c0,5.2-1.4,9.4-4.3,12.5c-2.8,3.1-6.6,4.7-11.4,4.7H269.5z M278.8,13v24.4c0,2.1,0.4,3.3,1.2,3.6c0.7,0.3,1.8,0.5,3.4,0.5
					c2.9,0,5.2-1.3,6.8-3.9c1.6-2.6,2.4-6.2,2.4-10.7c0-4.9-1-8.4-2.9-10.6c-1.9-2.2-5.1-3.3-9.5-3.3H278.8z"/>
			</g>
		</g>
		<g>
			<path class="st0" d="M126.3,80.5v-1.2l0.2,0c1-0.1,1.5-0.2,1.6-0.4c0.1-0.2,0.2-0.5,0.2-0.9l0.1-1.3V65.1l-0.1-1.3
				c0-0.6-0.1-0.9-0.3-1c-0.2-0.1-0.7-0.2-1.4-0.2l-0.2,0v-1.2h8.1v1.2l-0.2,0c-1,0.1-1.5,0.2-1.6,0.4c-0.1,0.2-0.2,0.5-0.2,0.9
				l-0.1,1.3v11.7l0.1,1.3c0,0.6,0.1,1,0.4,1c0.2,0.1,0.7,0.2,1.4,0.2l0.2,0v1.2H126.3z"/>
			<path class="st0" d="M148.1,80.5v-1.2l0.2,0c1-0.1,1.5-0.2,1.6-0.4c0.1-0.2,0.2-0.5,0.2-0.9l0.1-1.3V65.1l-0.1-1.3
				c0-0.6-0.1-0.9-0.3-1c-0.2-0.1-0.7-0.2-1.4-0.2l-0.2,0v-1.2h5.9l1.2,0l1.3,0l1,0c1.4,0,2.6,0.2,3.6,0.8c1.4,0.8,2.1,2.3,2.1,4.3
				c0,4.2-2.7,6.3-8,6.3H154v4.1c0,0.5,0,1,0.1,1.5c0,0.3,0.1,0.6,0.2,0.6c0.2,0.2,0.5,0.3,1,0.4l0.9,0.1l0.2,0v1.2H148.1z
				 M154,71.3h0.8c2.9,0,4.4-1.6,4.4-4.7c0-2.7-1.3-4.1-3.8-4.1H154V71.3z"/>
			<path class="st0" d="M194.9,80.5v-1.2l0.2,0c1-0.1,1.5-0.2,1.6-0.4c0.1-0.2,0.2-0.5,0.2-0.9l0.1-1.3V65.1l-0.1-1.3
				c0-0.6-0.1-0.9-0.3-1c-0.2-0.1-0.7-0.2-1.4-0.2l-0.2,0v-1.2h14.5v3.6h-2.2l0-0.2c0-0.3,0-0.6,0-0.8v-0.1c0-0.6-0.1-0.9-0.4-1.1
				c-0.3-0.1-0.8-0.2-1.5-0.2H201v7.8h2.9l1.3,0c0.4,0,0.6-0.1,0.6-0.2c0.1-0.1,0.1-0.3,0.1-0.5v0c0,0,0-0.1,0-0.2
				c0-0.2,0-0.3,0-0.4l0-0.2h1.7V73h-1.7l0-0.2l0-0.2c0-0.1,0-0.2,0-0.3v0c0-0.5-0.3-0.7-0.8-0.7l-1.2-0.1H201v5.3l0.1,1.3
				c0,0.6,0.2,0.9,0.3,1c0.2,0.1,0.4,0.2,0.9,0.2l0.9,0.1l0.2,0v1.2H194.9z"/>
			<path class="st0" d="M223.4,80.5v-1.2l0.2,0c1-0.1,1.5-0.2,1.6-0.4c0.1-0.2,0.2-0.5,0.2-0.9l0.1-1.3V65.1l-0.1-1.3
				c0-0.6-0.1-0.9-0.3-1c-0.2-0.1-0.7-0.2-1.4-0.2l-0.2,0v-1.2h8.1v1.2l-0.2,0c-1,0.1-1.5,0.2-1.6,0.4c-0.1,0.2-0.2,0.5-0.2,0.9
				l-0.1,1.3v11.7l0.1,1.3c0,0.6,0.1,1,0.4,1c0.2,0.1,0.7,0.2,1.4,0.2l0.2,0v1.2H223.4z"/>
			<path class="st0" d="M245.2,80.5v-1.2l0.2,0c1-0.1,1.5-0.2,1.6-0.4c0.1-0.2,0.2-0.5,0.2-0.9l0.1-1.3V65.1l-0.1-1.3
				c0-0.6-0.1-0.9-0.3-1c-0.2-0.1-0.7-0.2-1.4-0.2l-0.2,0v-1.2h5.6l1.2,0l1.2,0l1.2,0c1.6,0,2.9,0.2,3.9,0.8c1.4,0.8,2,2.1,2,4
				c0,1.6-0.5,2.9-1.4,3.9c-0.5,0.6-1.3,1.1-2.3,1.5l3.7,5.2l1,1.3c0.5,0.7,1.1,1.1,1.6,1.1l0.6,0l0.2,0v1.2H258l-5.3-8.4h-1.6v4.6
				l0.1,1.3c0,0.6,0.1,0.9,0.3,1c0.2,0.1,0.6,0.2,1.1,0.2l0.2,0v1.2H245.2z M251.1,70.8h0.7c1.4,0,2.4-0.4,3.2-1.2
				c0.8-0.8,1.2-1.9,1.2-3.3c0-2.5-1.2-3.7-3.7-3.7h-1.5V70.8z"/>
			<path class="st0" d="M276.4,80.5v-1.2l0.2,0c1-0.1,1.5-0.2,1.6-0.4c0.1-0.2,0.2-0.5,0.2-0.9l0.1-1.3V65.1l-0.1-1.3
				c0-0.6-0.1-0.9-0.3-1c-0.2-0.1-0.7-0.2-1.4-0.2l-0.2,0v-1.2h6.4l5.6,12.4l6-12.4h5.5v1.2l-0.2,0c-1,0.1-1.6,0.2-1.6,0.4
				c-0.1,0.2-0.2,0.5-0.2,0.9l-0.1,1.3v11.7L298,78c0,0.6,0.1,1,0.4,1c0.2,0.1,0.7,0.2,1.4,0.2l0.2,0v1.2h-7.5v-1.2l0.2,0
				c0.8-0.1,1.2-0.2,1.3-0.4c0.1-0.2,0.2-0.5,0.2-0.9l0.1-1.3V65.4l-6.4,13h-1.3l-6.2-13.8v12.2l0.1,1.3c0,0.6,0.1,0.9,0.3,1
				c0.2,0.1,0.6,0.2,1.1,0.2l0.2,0v1.2H276.4z"/>
		</g>
		<path id="Line_00000005981681218188968310000011898315817425943468_" class="st1" d="M262.8,55.1c1.3,0,2.3-1,2.3-2.3
			c0-1.3-1-2.3-2.3-2.3h-97.9c-1.3,0-2.3,1-2.3,2.3c0,1.3,1,2.3,2.3,2.3H262.8z"/>
	</g>
	<g>
		<g>
			<g>
				<g>
					
						<linearGradient id="SVGID_1_" gradientUnits="userSpaceOnUse" x1="29.165" y1="101.1782" x2="102.5443" y2="34.3011" gradientTransform="matrix(1 0 0 -1 0 92)">
						<stop  offset="0" style="stop-color:#00000B"/>
						<stop  offset="0.5" style="stop-color:#1D4158"/>
						<stop  offset="1" style="stop-color:#00000B"/>
					</linearGradient>
					<path class="st2" d="M117.9,17.7L123,0.1L99.4,27.7c-1.6-6.5-4.5-13.6-9-21.3L90,6.2c-15.5,7.2-28.8-2.3-28.8-2.3
						c-7.9,9.7-27.9,2.5-27.9,2.5c-4.6,7.8-7.5,15.1-9.1,21.7L0,0.1l5.1,17.6l17.7,24.1c0.1,2.4,0.3,4.6,0.7,6.8L5.9,24l5.5,21.7
						l23.1,25.4c11.2,13.5,26.6,19.4,27.4,19.7c0.8-0.3,16.9-6.7,28.2-20.6l21.5-24.5l5.5-21.7l-16.6,23.9c0.3-2.1,0.5-4.4,0.6-6.7
						L117.9,17.7z"/>
					
						<linearGradient id="SVGID_00000086654311709947075300000006592416510401486740_" gradientUnits="userSpaceOnUse" x1="61.8489" y1="1.0803" x2="61.8824" y2="1.0498" gradientTransform="matrix(1 0 0 -1 0 92)">
						<stop  offset="0" style="stop-color:#00000B"/>
						<stop  offset="0.5" style="stop-color:#1D4158"/>
						<stop  offset="1" style="stop-color:#00000B"/>
					</linearGradient>
					<path style="fill:url(#SVGID_00000086654311709947075300000006592416510401486740_);" d="M61.9,90.9
						C61.9,90.9,61.9,90.9,61.9,90.9C61.8,90.9,61.8,90.9,61.9,90.9L61.9,90.9z"/>
				</g>
				
					<linearGradient id="SVGID_00000094596882025454511040000000737719529134814645_" gradientUnits="userSpaceOnUse" x1="25.8785" y1="44.5598" x2="97.4002" y2="44.5598" gradientTransform="matrix(1 0 0 -1 0 92)">
					<stop  offset="0" style="stop-color:#B3B3B4"/>
					<stop  offset="4.984940e-02" style="stop-color:#C5C4C5"/>
					<stop  offset="0.1285" style="stop-color:#DDDBDC"/>
					<stop  offset="0.2009" style="stop-color:#EEECEC"/>
					<stop  offset="0.2606" style="stop-color:#F4F2F2"/>
					<stop  offset="0.3027" style="stop-color:#EDEBEB"/>
					<stop  offset="0.359" style="stop-color:#DAD8D9"/>
					<stop  offset="0.4231" style="stop-color:#BFBEBF"/>
					<stop  offset="0.4485" style="stop-color:#B3B3B4"/>
					<stop  offset="0.5818" style="stop-color:#B3B3B4"/>
					<stop  offset="0.6349" style="stop-color:#C7C6C7"/>
					<stop  offset="0.7047" style="stop-color:#DEDCDC"/>
					<stop  offset="0.7711" style="stop-color:#EDEAEA"/>
					<stop  offset="0.8303" style="stop-color:#F3F0EF"/>
					<stop  offset="1" style="stop-color:#B4B4B5"/>
				</linearGradient>
				<path style="fill:url(#SVGID_00000094596882025454511040000000737719529134814645_);" d="M87.7,10.4
					c32.2,54.3-26.1,76.3-26.1,76.3h0.1c0,0-58.3-22-26.1-76.3c0,0,18.3,6.5,25.5-2.2c0,0,12.1,8.6,26.3,2.1"/>
				<g>
					<g>
						
							<linearGradient id="SVGID_00000166647239467696907630000007857966983578072992_" gradientUnits="userSpaceOnUse" x1="29.3258" y1="29.6911" x2="93.955" y2="29.6911" gradientTransform="matrix(1 0 0 -1 0 92)">
							<stop  offset="0" style="stop-color:#03070D"/>
							<stop  offset="0.35" style="stop-color:#2C3032"/>
							<stop  offset="0.5" style="stop-color:#3B3E3F"/>
							<stop  offset="0.65" style="stop-color:#2C3032"/>
							<stop  offset="1" style="stop-color:#03070D"/>
						</linearGradient>
						<path style="fill:url(#SVGID_00000166647239467696907630000007857966983578072992_);" d="M73.4,48.5c-9.9,2-23.2,0-23.2,0
							c-8.5-1.2-15.8-3.6-20.9-6.8c-0.1,28.5,31.3,40.8,32.3,41.2c1-0.4,32.3-12.6,32.3-41C88.9,45,81.7,47.3,73.4,48.5z"/>
						
							<linearGradient id="SVGID_00000098204773893626762350000002373773432552500654_" gradientUnits="userSpaceOnUse" x1="29.3258" y1="35.7275" x2="42.8082" y2="35.7275" gradientTransform="matrix(1 0 0 -1 0 92)">
							<stop  offset="0" style="stop-color:#03070D"/>
							<stop  offset="0.35" style="stop-color:#2C3032"/>
							<stop  offset="0.5" style="stop-color:#3B3E3F"/>
							<stop  offset="0.65" style="stop-color:#2C3032"/>
							<stop  offset="1" style="stop-color:#03070D"/>
						</linearGradient>
						
							<path style="opacity:0.65;fill:url(#SVGID_00000098204773893626762350000002373773432552500654_);enable-background:new    ;" d="
							M34.7,44.5c-2-0.8-3.8-1.7-5.4-2.7c0,12.9,6.4,22.5,13.5,29.1C38.4,63.4,35.5,54.3,34.7,44.5z"/>
					</g>
					<g>
						<g>
							
								<linearGradient id="SVGID_00000165926134086308234110000012153705697990462398_" gradientUnits="userSpaceOnUse" x1="37.6735" y1="83.1785" x2="87.1898" y2="35.9918" gradientTransform="matrix(1 0 0 -1 0 92)">
								<stop  offset="0" style="stop-color:#00000B"/>
								<stop  offset="0.5" style="stop-color:#1D4158"/>
								<stop  offset="1" style="stop-color:#00000B"/>
							</linearGradient>
							<path style="fill:url(#SVGID_00000165926134086308234110000012153705697990462398_);" d="M85.2,14l-0.3-0.1
								C72.1,19.7,61.1,12,61.1,12c-6.5,7.9-23,2-23,2c-6.1,10.3-8.6,19.2-8.8,27c5.9,2.4,13.5,4.2,22,5c0,0,14.9,5.7,42.6-4.9
								C93.8,33.3,91.3,24.3,85.2,14z"/>
						</g>
						
							<linearGradient id="SVGID_00000070818864697401654860000008324319621080873135_" gradientUnits="userSpaceOnUse" x1="28.7421" y1="69.8669" x2="43.3398" y2="55.956" gradientTransform="matrix(1 0 0 -1 0 92)">
							<stop  offset="0" style="stop-color:#00000B"/>
							<stop  offset="0.5" style="stop-color:#1D4158"/>
							<stop  offset="1" style="stop-color:#00000B"/>
						</linearGradient>
						
							<path style="opacity:0.65;fill:url(#SVGID_00000070818864697401654860000008324319621080873135_);enable-background:new    ;" d="
							M40,14.6c-1.2-0.3-1.9-0.6-1.9-0.6c-6.1,10.3-8.6,19.2-8.8,27c1.6,0.7,3.4,1.3,5.3,1.8C34.1,32.4,36.1,22.7,40,14.6z"/>
					</g>
				</g>
			</g>
		</g>
		<g>
			
				<linearGradient id="SVGID_00000107570288500038701280000011275519522206269604_" gradientUnits="userSpaceOnUse" x1="43.8141" y1="46.5286" x2="56.4959" y2="46.5286" gradientTransform="matrix(1 0 0 -1 0 92)">
				<stop  offset="0" style="stop-color:#B3B3B4"/>
				<stop  offset="4.984940e-02" style="stop-color:#C5C4C5"/>
				<stop  offset="0.1285" style="stop-color:#DDDBDC"/>
				<stop  offset="0.2009" style="stop-color:#EEECEC"/>
				<stop  offset="0.2606" style="stop-color:#F4F2F2"/>
				<stop  offset="0.3027" style="stop-color:#EDEBEB"/>
				<stop  offset="0.359" style="stop-color:#DAD8D9"/>
				<stop  offset="0.4231" style="stop-color:#BFBEBF"/>
				<stop  offset="0.4485" style="stop-color:#B3B3B4"/>
				<stop  offset="0.5818" style="stop-color:#B3B3B4"/>
				<stop  offset="0.6349" style="stop-color:#C7C6C7"/>
				<stop  offset="0.7047" style="stop-color:#DEDCDC"/>
				<stop  offset="0.7711" style="stop-color:#EDEAEA"/>
				<stop  offset="0.8303" style="stop-color:#F3F0EF"/>
				<stop  offset="1" style="stop-color:#B4B4B5"/>
			</linearGradient>
			<path style="fill:url(#SVGID_00000107570288500038701280000011275519522206269604_);" d="M43.8,63.3c0.8-0.5,1.4-1.4,2-2.7
				c0.5-1.3,0.8-2.9,0.8-4.9V35.3c0-2-0.3-3.6-0.8-4.9c-0.6-1.3-1.2-2.2-2-2.7v-0.1h12.7v0.1c-0.8,0.5-1.4,1.4-2,2.7
				c-0.6,1.3-0.8,2.9-0.8,4.9v20.4c0,2,0.3,3.6,0.8,4.9c0.5,1.3,1.2,2.2,2,2.7v0.1H43.8V63.3z"/>
			
				<linearGradient id="SVGID_00000034091062342083580300000014436182359011865248_" gradientUnits="userSpaceOnUse" x1="58.0183" y1="46.5286" x2="85.0833" y2="46.5286" gradientTransform="matrix(1 0 0 -1 0 92)">
				<stop  offset="0" style="stop-color:#B3B3B4"/>
				<stop  offset="4.984940e-02" style="stop-color:#C5C4C5"/>
				<stop  offset="0.1285" style="stop-color:#DDDBDC"/>
				<stop  offset="0.2009" style="stop-color:#EEECEC"/>
				<stop  offset="0.2606" style="stop-color:#F4F2F2"/>
				<stop  offset="0.3027" style="stop-color:#EDEBEB"/>
				<stop  offset="0.359" style="stop-color:#DAD8D9"/>
				<stop  offset="0.4231" style="stop-color:#BFBEBF"/>
				<stop  offset="0.4485" style="stop-color:#B3B3B4"/>
				<stop  offset="0.5818" style="stop-color:#B3B3B4"/>
				<stop  offset="0.6349" style="stop-color:#C7C6C7"/>
				<stop  offset="0.7047" style="stop-color:#DEDCDC"/>
				<stop  offset="0.7711" style="stop-color:#EDEAEA"/>
				<stop  offset="0.8303" style="stop-color:#F3F0EF"/>
				<stop  offset="1" style="stop-color:#B4B4B5"/>
			</linearGradient>
			<path style="fill:url(#SVGID_00000034091062342083580300000014436182359011865248_);" d="M81.7,30.6c2.3,2,3.4,4.9,3.4,8.6
				c0,4.1-1.1,7.2-3.4,9.3c-2.2,2.1-5.4,3.1-9.6,3.1h-4.2v4.3c0,1.9,0.3,3.5,0.8,4.8c0.5,1.3,1.2,2.2,2,2.7v0.1H58v-0.1
				c0.8-0.5,1.4-1.4,2-2.7c0.5-1.3,0.8-2.9,0.8-4.9V35.1c0-1.9-0.3-3.5-0.8-4.8c-0.6-1.3-1.2-2.2-2-2.7v-0.1h14.1
				C76.2,27.6,79.4,28.6,81.7,30.6z M77.8,39.6c0-2.4-0.6-4.1-1.7-5.2c-1.1-1.1-2.8-1.7-5.2-1.7h-3v13.8l3,0.1
				C75.5,46.5,77.8,44.2,77.8,39.6z"/>
		</g>
	</g>
</g>
</svg>
